---
title: "赵传音乐集"
type: source
created: 2026-07-15
updated: 2026-07-15
source_path: 印象笔记管理工具/赵传音乐集.md
tags: [印象笔记]
---

# 赵传音乐集

# 赵传音乐集 --- 赵传的声音大家都很熟悉了，当年他的那首《我很丑，可是我很温柔》打动许多不够帅的男人！本来有8张，剔除了本站已有的《我很丑，可是我很温柔》以及《滚石珍藏版金碟》，故共6张专辑，分

---

# 赵传音乐集

---

赵传的声音大家都很熟悉了，当年他的那首《我很丑，可是我很温柔》打动许多不够帅的男人！本来有8张，剔除了本站已有的《我很丑，可是我很温柔》以及《滚石珍藏版金碟》，故共6张专辑，分别是《爱我就给我》、《当初应该爱你》、《那个傻瓜爱过你》、《约定》、《我终于失去了你》、《我是一只小小鸟》，专辑出品时间跨度从1988年到2001年。

[img]https://public.[sn2.livefilestore.com/y1px8RZAd8orIOluZ4g8LES3hbyUFkdmbcZhSLZ2\_ZE6Rg6f7\_KP\_Z\_jjDU7\_ou41W-XkKllHBrka-NsP1leSuv1w/RD-1035-1.jpg?psid=1[/img]](http://sn2.livefilestore.com/y1px8RZAd8orIOluZ4g8LES3hbyUFkdmbcZhSLZ2_ZE6Rg6f7_KP_Z_jjDU7_ou41W-XkKllHBrka-NsP1leSuv1w/RD-1035-1.jpg?psid=1%5B/img%5D)

[img]https://jxhrbq.[sn2.livefilestore.com/y1pV8rWCm0vdNVYF1UWqKNATq0XUsIrNoXFPTpnqof49KFIngg3TxBatn2Z2iqN-fB5RMCA\_40S-khGtGWcjIW2ZoeVC\_podJVu/RD-1035-2.jpg?psid=1[/img]](http://sn2.livefilestore.com/y1pV8rWCm0vdNVYF1UWqKNATq0XUsIrNoXFPTpnqof49KFIngg3TxBatn2Z2iqN-fB5RMCA_40S-khGtGWcjIW2ZoeVC_podJVu/RD-1035-2.jpg?psid=1%5B/img%5D)

专辑名称：我终于失去了你

歌 手：赵传

唱片公司：滚石

发行时间：1988/05

语 种：国语专辑1CD

唱片编号：RD-1035

专辑品质：APE整轨

专辑曲目：

01.不必等我

02.我终于失去了你

03.让我自己走

04.我的眼中只有你

05.留住遥远的你

06.你如何还能这样的温柔

07.心动的感觉

08.寂寞的骄傲

09.换上我的天空

10.把悲伤留给自己

Code:

Exact Audio Copy V0.99 prebeta 5 from 4. May 2009 EAC 抓取日志文件从15. 十二月 2011, 0:40 赵传 / 我终于失去了你 使用驱动器 ：HULSJC HM3GD2N49M Adapter: 2 ID: 0 读取模式 : 保护 使用精确流 : 是 废除音频缓冲 : 否 使用 C2 指针 : 是 组合读/写偏移校正 : 0 读取 Lead-In 和 Lead-Out : 否 用静音填充抓取中丢失偏移的采样 : 是 去除首尾静音块 : 否 在 CRC 计算中使用了空样本 : 否 已用接口 : Win NT 及 2000 本地 Win32 接口 所用输出格式 : 内部 WAV 函数 样本格式 : 44.100 Hz;16 Bit;立体声 被抓轨 CD 的 TOC 音轨 | 开始 | 长度 | 起始扇区 | 结尾扇区 -------------------------------------------------- 1 | 0:00.00 | 4:17.00 | 0 | 19274 2 | 4:17.00 | 4:48.00 | 19275 | 40874 3 | 9:05.00 | 3:35.00 | 40875 | 56999 4 | 12:40.00 | 4:02.00 | 57000 | 75149 5 | 16:42.00 | 5:20.00 | 75150 | 99149 6 | 22:02.00 | 4:43.00 | 99150 | 120374 7 | 26:45.00 | 4:14.00 | 120375 | 139424 8 | 30:59.00 | 5:05.00 | 139425 | 162299 9 | 36:04.00 | 3:16.00 | 162300 | 176999 10 | 39:20.00 | 4:30.00 | 177000 | 197249 范围状态及错误 已选择范围 文件名 D:\Music\赵传\赵传 - 我终于失去了你.wav 峰值电平 88.5 % 范围质量 100.0 % 复制 CRC 74F7E3D9 复制成功 没有错误发生 状态报告结尾

[img]https://jjwbca.[sn2.livefilestore.com/y1pY33Lglg4-ueHVjPBF8wCAl\_ZjoQREnB6fAcSpFpWt5ICe6P-Da3Di8B2mAr2Q5NctsglmrHm8hmSxlvYCkvxC98G17wlB1MW/RD-1080-1.jpg?psid=1[/img]](http://sn2.livefilestore.com/y1pY33Lglg4-ueHVjPBF8wCAl_ZjoQREnB6fAcSpFpWt5ICe6P-Da3Di8B2mAr2Q5NctsglmrHm8hmSxlvYCkvxC98G17wlB1MW/RD-1080-1.jpg?psid=1%5B/img%5D)

[img]https://jjwbca.[sn2.livefilestore.com/y1pYt2SYTUVql1QDd\_g27WiBdC84agINGoW\_5UUkbhVGCT2r3rCBGWf0JSgwh9J15f3MDg15jvSdN6JEK3sm10b3CBYT3rHhQL5/RD-1080-2.jpg?psid=1[/img]](http://sn2.livefilestore.com/y1pYt2SYTUVql1QDd_g27WiBdC84agINGoW_5UUkbhVGCT2r3rCBGWf0JSgwh9J15f3MDg15jvSdN6JEK3sm10b3CBYT3rHhQL5/RD-1080-2.jpg?psid=1%5B/img%5D)

专辑名称：我是一只小小鸟

歌 手：赵传

唱片公司：滚石

发行时间：1990/08

语 种：国语专辑1CD

唱片编号：RD-1080

专辑品质：APE整轨

专辑曲目：

01.我是一只小小鸟

02.不曾在你面前掉过泪

03.给我一些时间

04.我不只是你的昨天

05.所有的梦都仍然无恙

06.像我一样骄傲

07.至少你还拥有我

08.是你还是我

09.走出你的心

10.给所有知道我名字的人

Code:

Exact Audio Copy V0.99 prebeta 5 from 4. May 2009 EAC 抓取日志文件从15. 十二月 2011, 0:37 赵传 / 我是一只小小鸟 使用驱动器 ：HULSJC HM3GD2N49M Adapter: 2 ID: 0 读取模式 : 保护 使用精确流 : 是 废除音频缓冲 : 否 使用 C2 指针 : 是 组合读/写偏移校正 : 0 读取 Lead-In 和 Lead-Out : 否 用静音填充抓取中丢失偏移的采样 : 是 去除首尾静音块 : 否 在 CRC 计算中使用了空样本 : 否 已用接口 : Win NT 及 2000 本地 Win32 接口 所用输出格式 : 内部 WAV 函数 样本格式 : 44.100 Hz;16 Bit;立体声 被抓轨 CD 的 TOC 音轨 | 开始 | 长度 | 起始扇区 | 结尾扇区 -------------------------------------------------- 1 | 0:00.00 | 4:41.25 | 0 | 21099 2 | 4:41.25 | 3:59.00 | 21100 | 39024 3 | 8:40.25 | 5:05.38 | 39025 | 61937 4 | 13:45.63 | 4:54.00 | 61938 | 83987 5 | 18:39.63 | 5:14.50 | 83988 | 107587 6 | 23:54.38 | 4:57.25 | 107588 | 129887 7 | 28:51.63 | 4:56.25 | 129888 | 152112 8 | 33:48.13 | 3:40.00 | 152113 | 168612 9 | 37:28.13 | 5:02.37 | 168613 | 191299 10 | 42:30.50 | 6:05.63 | 191300 | 218737 范围状态及错误 已选择范围 文件名 D:\Music\赵传\赵传 - 我是一只小小鸟.wav 峰值电平 77.2 % 范围质量 100.0 % 复制 CRC 2137A2A4 复制成功 没有错误发生 状态报告结尾

[img]https://public.[sn2.livefilestore.com/y1pP0lMu1iQcbvmu9gw\_l5LwrD4LsZ-GGXDzDuBzo4CtyCFwLjueNv9zATHa10NDqbYe2OQZISdc07Iy3FtC4OBfQ/RD-1266-1.jpg?psid=1[/img]](http://sn2.livefilestore.com/y1pP0lMu1iQcbvmu9gw_l5LwrD4LsZ-GGXDzDuBzo4CtyCFwLjueNv9zATHa10NDqbYe2OQZISdc07Iy3FtC4OBfQ/RD-1266-1.jpg?psid=1%5B/img%5D)

[img]https://public.[sn2.livefilestore.com/y1pTXRwypVsBNM3x53-aaHh3v3pBzQMuVh-0YpzSBPXPEKoMdHmlXqsjeoMc2Nxya5m9QCgKAfOsp3oIrlKuVH9Pw/RD-1266-2.jpg?psid=1[/img]](http://sn2.livefilestore.com/y1pTXRwypVsBNM3x53-aaHh3v3pBzQMuVh-0YpzSBPXPEKoMdHmlXqsjeoMc2Nxya5m9QCgKAfOsp3oIrlKuVH9Pw/RD-1266-2.jpg?psid=1%5B/img%5D)

专辑名称：爱我就给我

歌 手：赵传

唱片公司：滚石

发行时间：1994/07

语 种：国语专辑1CD

唱片编号：RD-1266

专辑品质：APE整轨

专辑曲目：

01.我的心好乱

02.我以为我知道

03.爱我就给我

04.很多人像我一样

05.大地

06.问一问青天

07.别说我爱的不够

08.甜蜜宝贝

09.新劝世歌

10.任我逍遥游

Code:

Exact Audio Copy V0.99 prebeta 5 from 4. May 2009 EAC 抓取日志文件从15. 十二月 2011, 0:14 未知艺术家 / 未知标题 使用驱动器 ：HULSJC HM3GD2N49M Adapter: 2 ID: 0 读取模式 : 保护 使用精确流 : 是 废除音频缓冲 : 是 使用 C2 指针 : 否 组合读/写偏移校正 : 0 读取 Lead-In 和 Lead-Out : 否 用静音填充抓取中丢失偏移的采样 : 是 去除首尾静音块 : 否 在 CRC 计算中使用了空样本 : 否 已用接口 : Win NT 及 2000 本地 Win32 接口 所用输出格式 : 内部 WAV 函数 样本格式 : 44.100 Hz;16 Bit;立体声 被抓轨 CD 的 TOC 音轨 | 开始 | 长度 | 起始扇区 | 结尾扇区 -------------------------------------------------- 1 | 0:00.00 | 5:06.12 | 0 | 22961 2 | 5:06.12 | 4:33.63 | 22962 | 43499 3 | 9:40.00 | 4:47.25 | 43500 | 65049 4 | 14:27.25 | 5:18.62 | 65050 | 88961 5 | 19:46.12 | 4:16.38 | 88962 | 108199 6 | 24:02.50 | 4:27.62 | 108200 | 128286 7 | 28:30.37 | 5:21.00 | 128287 | 152361 8 | 33:51.37 | 4:47.00 | 152362 | 173886 9 | 38:38.37 | 3:48.63 | 173887 | 191049 10 | 42:27.25 | 5:03.50 | 191050 | 213824 范围状态及错误 已选择范围 文件名 D:\Music\赵传 - 爱我就给我.wav 峰值电平 100.0 % 范围质量 100.0 % 复制 CRC 59046AC6 复制成功 没有错误发生 状态报告结尾

[img]https://jjyapw.[sn2.livefilestore.com/y1pQ8NfjXDEykN-0Y703AGW2BerQR3E3Sz-bIZ4wjL5UIVErJNHO1RkGtEUqPS6tybqcAQKXsDlhjRItN7mO-hEZ2vK4DsHa0Vv/RD-1330-1.jpg?psid=1[/img]](http://sn2.livefilestore.com/y1pQ8NfjXDEykN-0Y703AGW2BerQR3E3Sz-bIZ4wjL5UIVErJNHO1RkGtEUqPS6tybqcAQKXsDlhjRItN7mO-hEZ2vK4DsHa0Vv/RD-1330-1.jpg?psid=1%5B/img%5D)

[img]https://public.[sn2.livefilestore.com/y1pyznjnF05gUyxfgc-woVmEusMOju8v6DcT2rWlyznvXIEnOtpmuuBBtMmCSJrlbnsGBq\_HGbxlL3KL5lOgZPabA/RD-1330-2.jpg?psid=1[/img]](http://sn2.livefilestore.com/y1pyznjnF05gUyxfgc-woVmEusMOju8v6DcT2rWlyznvXIEnOtpmuuBBtMmCSJrlbnsGBq_HGbxlL3KL5lOgZPabA/RD-1330-2.jpg?psid=1%5B/img%5D)

专辑名称：当初应该爱你

歌 手：赵传

唱片公司：滚石

发行时间：1995/10

语 种：国语专辑1CD

唱片编号：RD-1330

专辑品质：APE整轨

专辑曲目：

01.断了爱你的心

02.当初应该爱你

03.仿佛是昨天

04.蝴蝶飘呀飘

05.人间

06.始终有你

07.我承认

08.年轻的心永远喝采

09.我的国歌

10.当初应该爱你

11.平静的心灵

Code:

Exact Audio Copy V0.99 prebeta 5 from 4. May 2009 EAC 抓取日志文件从15. 十二月 2011, 0:23 赵传 / 当初应该爱你 使用驱动器 ：HULSJC HM3GD2N49M Adapter: 2 ID: 0 读取模式 : 保护 使用精确流 : 是 废除音频缓冲 : 是 使用 C2 指针 : 否 组合读/写偏移校正 : 0 读取 Lead-In 和 Lead-Out : 否 用静音填充抓取中丢失偏移的采样 : 是 去除首尾静音块 : 否 在 CRC 计算中使用了空样本 : 否 已用接口 : Win NT 及 2000 本地 Win32 接口 所用输出格式 : 内部 WAV 函数 样本格式 : 44.100 Hz;16 Bit;立体声 被抓轨 CD 的 TOC 音轨 | 开始 | 长度 | 起始扇区 | 结尾扇区 -------------------------------------------------- 1 | 0:00.00 | 4:58.27 | 0 | 22376 2 | 4:58.27 | 3:33.30 | 22377 | 38381 3 | 8:31.57 | 5:12.10 | 38382 | 61791 4 | 13:43.67 | 4:18.68 | 61792 | 81209 5 | 18:02.60 | 5:19.27 | 81210 | 105161 6 | 23:22.12 | 4:41.58 | 105162 | 126294 7 | 28:03.70 | 4:38.72 | 126295 | 147216 8 | 32:42.67 | 4:36.58 | 147217 | 167974 9 | 37:19.50 | 4:25.50 | 167975 | 187899 10 | 41:45.25 | 5:04.17 | 187900 | 210716 11 | 46:49.42 | 3:38.18 | 210717 | 227084 范围状态及错误 已选择范围 文件名 D:\Music\赵传\赵传 - 当初应该爱你.wav 峰值电平 100.0 % 范围质量 100.0 % 复制 CRC 41BD706D 复制成功 没有错误发生 状态报告结尾

[img]https://public.[sn2.livefilestore.com/y1pVwuWjfNtWC0kxm9cz\_xkmQZR8BVPdqOznSt5hT2aceiCi-O\_ny1ijQGR0PV2hPsD2dUvNk0pStOx1r1X9yKNJw/RD-1567-1.jpg?psid=1[/img]](http://sn2.livefilestore.com/y1pVwuWjfNtWC0kxm9cz_xkmQZR8BVPdqOznSt5hT2aceiCi-O_ny1ijQGR0PV2hPsD2dUvNk0pStOx1r1X9yKNJw/RD-1567-1.jpg?psid=1%5B/img%5D)

[img]https://jxfqpq.[sn2.livefilestore.com/y1prD-z2Ct9zBzYYcBLRhXb2SXYwLw4\_\_vQaE6Nd2RlJJRNC1fCMDpDZJ-L1y\_7EVuoqrF2EKcNCN66I5jpqNEEVu09ev6uOwPF/RD-1567-2.jpg?psid=1[/img]](http://sn2.livefilestore.com/y1prD-z2Ct9zBzYYcBLRhXb2SXYwLw4__vQaE6Nd2RlJJRNC1fCMDpDZJ-L1y_7EVuoqrF2EKcNCN66I5jpqNEEVu09ev6uOwPF/RD-1567-2.jpg?psid=1%5B/img%5D)

专辑名称：那个傻瓜爱过你

歌 手：赵传

唱片公司：滚石

发行时间：2001/03/16

语 种：国语专辑1CD

唱片编号：RD-1567

专辑品质：APE整轨

专辑曲目：

01.我所爱的让我流泪

02.那个傻瓜爱过你

03.没有人能像你

04.执着

05.寂寞入口

06.温柔的查甫人

07.不该还爱他

08.心爱的不要说再见

09.年轮

10.每一个你

11.Sweetest Demon

12.特别的想念

Code:

Exact Audio Copy V0.99 prebeta 5 from 4. May 2009 EAC 抓取日志文件从15. 十二月 2011, 0:31 赵传 / 那个傻瓜爱过你 使用驱动器 ：HULSJC HM3GD2N49M Adapter: 2 ID: 0 读取模式 : 保护 使用精确流 : 是 废除音频缓冲 : 否 使用 C2 指针 : 否 组合读/写偏移校正 : 0 读取 Lead-In 和 Lead-Out : 否 用静音填充抓取中丢失偏移的采样 : 是 去除首尾静音块 : 否 在 CRC 计算中使用了空样本 : 否 已用接口 : Win NT 及 2000 本地 Win32 接口 所用输出格式 : 内部 WAV 函数 样本格式 : 44.100 Hz;16 Bit;立体声 被抓轨 CD 的 TOC 音轨 | 开始 | 长度 | 起始扇区 | 结尾扇区 -------------------------------------------------- 1 | 0:00.00 | 5:31.17 | 0 | 24841 2 | 5:31.17 | 4:12.13 | 24842 | 43754 3 | 9:43.30 | 5:19.72 | 43755 | 67751 4 | 15:03.27 | 4:31.00 | 67752 | 88076 5 | 19:34.27 | 4:56.23 | 88077 | 110299 6 | 24:30.50 | 4:13.55 | 110300 | 129329 7 | 28:44.30 | 4:16.27 | 129330 | 148556 8 | 33:00.57 | 4:00.50 | 148557 | 166606 9 | 37:01.32 | 4:22.38 | 166607 | 186294 10 | 41:23.70 | 3:58.15 | 186295 | 204159 11 | 45:22.10 | 0:22.02 | 204160 | 205811 12 | 45:44.12 | 4:01.35 | 205812 | 223921 范围状态及错误 已选择范围 文件名 D:\Music\赵传\赵传 - 那个傻瓜爱过你.wav 峰值电平 99.9 % 范围质量 100.0 % 复制 CRC E99324EF 复制成功 没有错误发生 状态报告结尾

[img]https://jxgg4g.[sn2.livefilestore.com/y1pxlRlPEV8v34r8\_JhqFqMRoN-ishDA1XhdoN\_RpL3qBQjZHDSs-sng3OkbBq\_Q9siGc0MJAvcu5YA\_Qk0DOY5\_\_lPU6CnRWPx/RD-1208-1.jpg?psid=1[/img]](http://sn2.livefilestore.com/y1pxlRlPEV8v34r8_JhqFqMRoN-ishDA1XhdoN_RpL3qBQjZHDSs-sng3OkbBq_Q9siGc0MJAvcu5YA_Qk0DOY5__lPU6CnRWPx/RD-1208-1.jpg?psid=1%5B/img%5D)

[img]https://jxgg4g.[sn2.livefilestore.com/y1pxlRlPEV8v34oWHDtzkHU5q2enfgVU\_mAK2wldyoIgzSGnkWC6qTbyFKoPa82\_1DgpL9oXANOQ-75aN9zB7ypm0LvL8ttYD7K/RD-1208-2.jpg?psid=1[/img]](http://sn2.livefilestore.com/y1pxlRlPEV8v34oWHDtzkHU5q2enfgVU_mAK2wldyoIgzSGnkWC6qTbyFKoPa82_1DgpL9oXANOQ-75aN9zB7ypm0LvL8ttYD7K/RD-1208-2.jpg?psid=1%5B/img%5D)

专辑名称：约定

歌 手：赵传

唱片公司：滚石

发行时间：1993/09

语 种：国语专辑1CD

唱片编号：RD-1208

专辑品质：APE整轨

专辑曲目：

01.爱要怎么说出口

02.唱不完的情唱不完的爱

03.我的诺言

04.那年的话

05.你我的约定

06.可以相信的朋友

07.我做到的骄仿

08.沉默的羔羊

09.让我再一次拥着你

10.快乐似神仙

Code:

Exact Audio Copy V0.99 prebeta 5 from 4. May 2009 EAC 抓取日志文件从15. 十二月 2011, 0:44 赵传 / 约定 使用驱动器 ：HULSJC HM3GD2N49M Adapter: 2 ID: 0 读取模式 : 保护 使用精确流 : 是 废除音频缓冲 : 否 使用 C2 指针 : 是 组合读/写偏移校正 : 0 读取 Lead-In 和 Lead-Out : 否 用静音填充抓取中丢失偏移的采样 : 是 去除首尾静音块 : 否 在 CRC 计算中使用了空样本 : 否 已用接口 : Win NT 及 2000 本地 Win32 接口 所用输出格式 : 内部 WAV 函数 样本格式 : 44.100 Hz;16 Bit;立体声 被抓轨 CD 的 TOC 音轨 | 开始 | 长度 | 起始扇区 | 结尾扇区 -------------------------------------------------- 1 | 0:00.00 | 4:42.63 | 0 | 21212 2 | 4:42.63 | 5:02.37 | 21213 | 43899 3 | 9:45.25 | 4:32.50 | 43900 | 64349 4 | 14:18.00 | 3:45.50 | 64350 | 81274 5 | 18:03.50 | 4:29.00 | 81275 | 101449 6 | 22:32.50 | 4:23.38 | 101450 | 121212 7 | 26:56.13 | 4:44.00 | 121213 | 142512 8 | 31:40.13 | 4:56.62 | 142513 | 164774 9 | 36:37.00 | 5:16.63 | 164775 | 188537 10 | 41:53.63 | 3:59.62 | 188538 | 206524 范围状态及错误 已选择范围 文件名 D:\Music\赵传\赵传 - 约定.wav 峰值电平 100.0 % 范围质量 100.0 % 复制 CRC 70AF4A84 复制成功 没有错误发生 状态报告结尾

[📎 在印象笔记中打开](evernote:///view/207087/s1/d19f658b-a073-4508-b704-71e90cbdfc0d/d19f658b-a073-4508-b704-71e90cbdfc0d/)